# xmcd
#
# Track frame offsets:
#	150
#	16982
#	33892
#	51130
#	66465
#	77827
#	92947
#	107847
#	125672
#	143864
#	162387
#
# Disc length: 2350 seconds
#
# Revision: 1
# Processed by: cddbd v1.5.2PL0 Copyright (c) Steve Scherf et al.
# Submitted via: audiograbber 1.83.01
#
DISCID=98092c0b
DTITLE=Will Hoge - Anchors
DYEAR=2017
DGENRE=Country
TTITLE0=The Reckoning
TTITLE1=This Grand Charade
TTITLE2=Little Bit Of Rust
TTITLE3=Cold Night In Santa Fe
TTITLE4=Baby's Eyes
TTITLE5=(This Ain't) An Original Sin
TTITLE6=Through Missing You
TTITLE7=Anchors
TTITLE8=Angels Wings
TTITLE9=17
TTITLE10=Young As We Will Ever Be
EXTD=
EXTT0=
EXTT1=
EXTT2=
EXTT3=
EXTT4=
EXTT5=
EXTT6=
EXTT7=
EXTT8=
EXTT9=
EXTT10=
PLAYORDER=
